:SAMPLES-PER-SECOND 30
:FULLY-SPECIFIED
:DEGREES
308
root  67.1521 38.1675 -18.0828 26.3923 0.164185 -0.465851
RightUpLeg  -53.4625 -15.6404 12.6066
RightLeg  24.4539 -3.54491 -1.98733
RightFoot  3.2276 0.886937 -6.75327
RightToes  0.00048216 0.542163 -0.142577
Spine  63.3671 -3.30387 5.25257
Spine1  6.22811 0.716563 -3.30769
HEad  -40.806 -10.147 11.4977
LeftShoulder1  9.81042 -25.6197 -27.3928
LeftArm  -44.513 -51.735 -17.6215
LeftForeArm  4.19183 -31.3205 -6.63932
LeftHand  -0.25398 0.0180481 5.50724
RightShoulder  3.98676 14.284 15.6554
RightArm  -24.428 57.2449 24.983
RightForeArm  -25.4582 32.4874 8.44872
RightHand  -0.561635 4.14631 -7.16555
LeftUpLeg  -58.5084 30.9175 -29.8198
LeftLeg  22.6207 0.22503 0.441533
LeftFoot  -0.622741 -1.23184 13.1103
LeftToes  1.06248e-005 4.65856e-005 -8.18499e-006
309
root  67.2033 38.3569 -18.2066 23.683 -0.916473 -0.523743
RightUpLeg  -50.0825 -16.2119 11.9479
RightLeg  23.0972 -2.17942 -1.24612
RightFoot  4.08072 0.918221 -6.55039
RightToes  0.00048216 0.542163 -0.142577
Spine  62.0598 -2.96612 4.92608
Spine1  6.14177 0.642786 -2.80139
HEad  -39.9025 -10.9022 11.8132
LeftShoulder1  9.88932 -25.051 -28.3798
LeftArm  -40.071 -47.7631 -21.1783
LeftForeArm  3.59921 -33.3149 -7.19492
LeftHand  -0.25398 0.0180481 5.50724
RightShoulder  4.07469 14.0152 16.5798
RightArm  -19.3296 55.1241 29.6262
RightForeArm  -24.9292 34.0893 8.88367
RightHand  -0.493702 3.40848 -6.8115
LeftUpLeg  -55.1201 33.0757 -28.4568
LeftLeg  20.9455 -0.495954 0.12903
LeftFoot  0.0140622 -1.25268 12.5468
LeftToes  1.06248e-005 4.65856e-005 -8.18499e-006
310
root  67.2563 38.5485 -18.3031 21.0018 -2.24203 -0.640579
RightUpLeg  -47.1939 -18.3115 12.3233
RightLeg  22.0935 1.29311 0.358254
RightFoot  5.35776 1.0396 -6.83017
RightToes  0.00048216 0.542163 -0.142577
Spine  60.8617 -2.5485 4.4022
Spine1  5.8434 0.580741 -2.16532
HEad  -38.7981 -11.4362 11.9171
LeftShoulder1  10.0208 -24.3019 -29.8316
LeftArm  -36.3362 -43.4235 -23.5363
LeftForeArm  2.79936 -35.6554 -7.8902
LeftHand  -0.25398 0.0180481 5.50724
RightShoulder  4.18763 13.7813 17.6334
RightArm  -14.39 53.1159 33.4083
RightForeArm  -24.8545 35.8153 9.39613
RightHand  -0.434445 2.30336 -6.79392
LeftUpLeg  -51.8867 35.445 -26.9254
LeftLeg  19.7398 -1.4122 -0.230527
LeftFoot  0.649857 -1.22716 11.6043
LeftToes  1.06248e-005 4.65856e-005 -8.18499e-006
311
root  67.3091 38.7434 -18.3692 18.6381 -4.03899 -0.86264
RightUpLeg  -45.0865 -21.8111 13.3479
RightLeg  21.7157 6.4818 2.6222
RightFoot  6.59661 0.674971 -4.00339
RightToes  0.00048216 0.542163 -0.142577
Spine  59.552 -2.0373 3.59158
Spine1  5.44668 0.622725 -1.74049
HEad  -37.6235 -11.6605 12.0086
LeftShoulder1  10.1519 -23.4399 -31.5072
LeftArm  -33.3002 -38.834 -24.4869
LeftForeArm  1.63342 -38.1176 -8.69319
LeftHand  -0.25398 0.0180481 5.50724
RightShoulder  4.33481 13.5516 18.9192
RightArm  -9.32288 51.591 36.65
RightForeArm  -25.3756 37.337 9.89625
RightHand  -0.381681 0.963272 -7.09929
LeftUpLeg  -48.8238 37.6014 -24.9313
LeftLeg  19.057 -1.23756 -0.572842
LeftFoot  1.13747 -1.19214 10.8038
LeftToes  1.06248e-005 4.65856e-005 -8.18499e-006
312
root  67.3208 38.8763 -18.3775 16.7009 -6.31094 -1.08498
RightUpLeg  -43.4878 -25.9443 14.2081
RightLeg  21.8935 12.4776 5.26597
RightFoot  6.45784 -0.819601 5.59456
RightToes  0.00048216 0.542163 -0.142577
Spine  57.9505 -1.38513 2.37101
Spine1  4.85413 0.808099 -1.61037
HEad  -36.4048 -11.6963 12.2618
LeftShoulder1  10.2235 -22.6407 -32.9492
LeftArm  -31.0835 -33.8527 -24.4288
LeftForeArm  0.251834 -40.612 -9.58403
LeftHand  -0.25398 0.0180481 5.50724
RightShoulder  4.40295 13.1601 20.0068
RightArm  -3.87699 50.3533 40.3497
RightForeArm  -25.9519 38.5732 10.3278
RightHand  -0.338875 -0.149531 -7.49715
LeftUpLeg  -45.0045 38.3375 -20.9513
LeftLeg  18.8811 1.9092 -1.19777
LeftFoot  1.10966 -1.14088 10.3649
LeftToes  1.06248e-005 4.65856e-005 -8.18499e-006
313
root  67.2421 38.9198 -18.3278 14.7962 -8.65195 -1.01813
RightUpLeg  -42.0158 -30.2547 14.04
RightLeg  22.9719 18.5639 8.24814
RightFoot  5.20853 -2.92593 20.1864
RightToes  0.00048216 0.542163 -0.142577
Spine  56.2202 -0.647426 0.821664
Spine1  3.76292 1.07952 -1.5996
HEad  -35.0265 -12.0601 12.8822
LeftShoulder1  10.2381 -22.0313 -33.9462
LeftArm  -29.4306 -28.6451 -24.1956
LeftForeArm  -0.974488 -42.8166 -10.4326
LeftHand  -0.25398 0.0180481 5.50724
RightShoulder  4.31579 12.4051 20.7648
RightArm  1.75472 48.9616 44.7387
RightForeArm  -26.2759 39.7093 10.7296
RightHand  -0.322772 -0.830984 -8.10175
LeftUpLeg  -40.024 37.2873 -15.316
LeftLeg  18.8934 7.50626 -2.0319
LeftFoot  0.473248 -1.03712 9.96462
LeftToes  1.06248e-005 4.65856e-005 -8.18499e-006
314
root  67.0693 38.9637 -18.2557 12.715 -10.7245 -0.692337
RightUpLeg  -40.4047 -34.1811 12.8804
RightLeg  24.8338 21.6967 10.4044
RightFoot  3.9353 -4.09767 30.0796
RightToes  0.00048216 0.542163 -0.142577
Spine  53.8386 -0.208648 -0.388164
Spine1  3.66346 1.16491 -1.76714
HEad  -33.9046 -12.9355 14.1374
LeftShoulder1  10.3469 -21.4941 -35.2367
LeftArm  -28.0896 -24.2721 -23.196
LeftForeArm  -2.19353 -44.0947 -10.9912
LeftHand  -0.25398 0.0180481 5.50724
RightShoulder  4.46955 12.3101 21.973
RightArm  6.08604 47.3953 47.7622
RightForeArm  -26.7115 40.6948 11.0982
RightHand  -0.320691 -1.41287 -9.14295
LeftUpLeg  -34.1707 34.1961 -9.00104
LeftLeg  18.3758 14.5701 -2.83679
LeftFoot  -0.100873 -0.914735 9.28067
LeftToes  1.06248e-005 4.65856e-005 -8.18499e-006
315
root  66.8342 39.1247 -18.1822 10.8699 -12.6939 -0.499771
RightUpLeg  -38.7819 -36.7674 11.0187
RightLeg  27.0858 19.2053 10.1445
RightFoot  2.87882 -3.68887 29.065
RightToes  0.00048216 0.542163 -0.142577
Spine  51.5513 0.0751877 -0.706886
Spine1  3.45541 1.19721 -1.8585
HEad  -32.8076 -14.5844 15.6966
LeftShoulder1  10.3931 -20.7328 -36.7059
LeftArm  -26.3452 -20.7139 -22.1404
LeftForeArm  -3.6483 -44.5159 -11.2507
LeftHand  -0.25398 0.0180481 5.50724
RightShoulder  4.723 12.4377 23.4214
RightArm  9.464 45.2544 50.0803
RightForeArm  -27.4586 41.6451 11.4798
RightHand  -0.296513 -2.25911 -10.5552
LeftUpLeg  -28.638 29.9004 -3.45747
LeftLeg  16.627 21.7839 -3.55129
LeftFoot  0.287866 -0.848953 8.31105
LeftToes  1.06248e-005 4.65856e-005 -8.18499e-006
